<?xml version="1.0" encoding="UTF-8"?>
<svg id="Layer_2" data-name="Layer 2" xmlns="http://www.w3.org/2000/svg" viewBox="0 0 322.29 322.29">
  <defs>
    <style>
      .cls-1 {
        fill: #fff;
      }
    </style>
  </defs>
  <g id="Layer_1-2" data-name="Layer 1">
    <g>
      <path class="cls-1" d="M0,322.16V0h322.29v322.29H0v-.13ZM249.14,108.4c3.77,10.04,5.27,23.05,5.84,33.85.56,10.7.72,21.17.67,31.88-.02,3.51.37,6.72.85,10.13.36,2.61.08,5.26.88,7.74.62-14.79.72-29.21.32-43.87-.22-7.86-.6-15.38-1.74-23.16-1.58-10.81-4.99-21.2-9.98-30.9-4.87-9.46-11.38-17.69-18.78-25.23-5.51-5.61-11.61-10.09-18.19-14.3-14.75-9.44-31.69-14.33-49.29-13.73-23.6.82-45.88,10.68-62.9,26.86-13.07,12.42-22.31,28.09-26.86,45.5-1.01,3.87-2.02,7.34-2.67,11.31-2.26,13.71-3.07,27.47-2.28,41.4.38-.27.37-.66.39-1.29.25-8.82.65-17.41,1.41-26.19.56-6.4,1.47-12.45,2.95-18.69,4.67-19.73,15.01-37.49,29.88-51.29,10.52-9.77,23.06-17.17,36.78-21.44,16.36-5.09,33.52-5.05,49.84.2,28.94,9.32,52.29,32.91,62.91,61.2ZM117.12,112.26c1.61-1.26,2.36-2.96,2.55-4.94l.49-5.1c-2.89,2.04-3.94,5.11-4.59,8.41-.47-1.32-.24-2.86.26-4.28.96-2.73,1.02-5.38.3-8.14l-.75-2.91c-2.35,4.41-3.18,9.3-.8,13.5l.33,2.67-.33-.37c-.58-2.02-1.88-3.32-3.17-4.85l-2.36-2.8c-.04,2.81.72,5.58,1.98,8.1,1.01,2.01,2.84,3.12,4.68,4.37.47,1.05.84,2.41,1.05,3.64-1.43-1.83-2.78-3.53-4.85-4.52l-3.5-1.66,2.15,4.03c1.31,2.46,3.11,4.33,5.8,5.3l2.61.94.95,2.24c-2.11-1.5-3.89-2.17-6.32-2.24-1.64-.05-3.3-.25-4.88.39l4.52,2.81c1.53.95,3.09,1.77,4.97,1.6l3.17-.28,2.12,2.9c-2.35-1.25-4.52-1.58-7.06-1.73l-3.48-.22c1.02,1.37,2.29,2.23,3.58,3.22,2.26,1.75,4.87,2.59,7.75,1.68,1.16-.36,2.73-.13,3.14,1.41-1.23-.1-2.82-.41-3.91-.07l-4.32,1.37.35-2.53c-.47.27-1.15,1.01-1.18,1.5-.13,2.27,3.92,3.78,6.86,4.51-1.63,2.5-1.06,4.88.32,7.69.05-2.07.88-3.49,2.28-4.89l1.78-1.79,2.56.39v-.31s-2.29-.8-2.29-.8l3.22-.76c-.18,1.56-.07,3.12,1.11,4.32.68.38,2.13.09,2.91-.21,3.71-1.44,6.18.32,8.18-2.3.36,3.1,1.8,5.38,3.87,7.35l2.03,2.49c.46-2.81-.38-5.19-1.31-7.74,14.81,1.07,31.92,1.16,46.19-2.2,2.99-.7,5.75-1.76,8.4-3.23l.31,21.5c0,.37-.14.89-.31,1.08s-.86.28-1.01.07l-1.13-1.51c-.16-.21-.26-.29-.2-.36l.24-.31c-.61-.61-2.21-.74-2.62.3l.8,2.88,1.11,3.98-1.49-.53-1.04-3.55-1.6-5.14c-.27-.87-.31-1.88-.36-2.89-1.86,3.97-1.75,7.24.99,10.89-1.36-.28-2.29.44-2.71,1.54-.74-.77-1.51-1.3-2.37-1.35-.8-.05-1.69.61-2.25,1.25-1.43-.39-2.69-.2-3.38,1.33-1,2.23-3.25,2.7-3.04,5.07.06.67.78,1.56,1.35,2.1-.63.34-1.38.8-1.59,1.25-.25.53-.11,1.51.22,1.91l1.77,2.18c-1.18.22-2.26-.31-2.8-1.34l-1.69-3.2c-1.28-2.43-2.9-4.47-5.36-5.71-.09-.14-.32-.44-.35-.32-.87,3.28,1.5,6.72,4.22,9.06,1.67,1.45,3.6,2.01,5.94,2.25-3.82,1.7-4.92-1.56-8.71-3.02-2.21-.85-4.54-1.28-6.9-.07,2.72,2.82,6.51,4.29,10.16,4.15-3.29-.59-6.23-1.39-8.65-3.88,2.69-1.12,6.63.69,9.2,2.8l-4.97-1.31c1.96,1.38,4.39,1.89,6.77,2.43-1.61.41-3.55,1.36-5,.84l-7.12-2.6c-1.77-.65-3.38-.59-5.28-.66-10.56-.35-20.89-1.13-31.32-2.65-4.77-.69-12-2.03-14.65-5.45l-.29-19.75-.74-13.52c-.02-.34-.34-.92-.57-1.13l-.81,15.42c-.29,5.44-.03,10.69.12,16.12-3.46.36-6.83,1.47-9.48,3.58-1.34,1.07-1.52,2.23-1.35,3.81.15,1.44.49,2.74,1.75,3.76,4.71,3.8,13.85,4.98,20.2,5.83,3.86.52,7.49,1.61,11.4,1.9l14.12,1.05c-.58,4.13-2.4,8.78-5.91,10.79l-5.73,3.28c-1.68.96-3.22,2.03-4.42,3.56l-.46,1.56c-.39,1.3-.71,2.47.38,3.53,2.91,2.81,11.43,3.99,16.2,4.29,8.52.53,19.35.72,27.11-2.2,1.8-.68,3.49-1.58,4.63-3.14-1.73.73-3.25,1.45-5.02,1.76l-7.19,1.27c-6.59.69-13.02.65-19.62.23-4.85-.32-9.58-.92-14.06-2.69-1.17-.46-2.04-1.46-1.52-2.67,1.49,1.19,3.1,2,4.98,2.51,6.81,1.85,13.64,2.16,20.83,1.59v-.41c-8.35-.06-16.28-1.11-24.11-3.53-.29-.09-.86-.54-.89-.8s.36-.84.61-.98l6.62-3.73c5.78-2.2,9.22-7.91,8.51-14.16l13.52-.12c-.32,4.89,1.68,10.01,6.01,12.61l7.66,3.96c1.93,1,3.08,2.51,3.86,4.48,0-2.35-1.52-4.47-3.47-5.62l-5.66-3.34c-2.65-1.56-4.69-3.89-5.55-6.84l-1.55-5.36,7.13-.78c-1.31,2.26-2.21,4.15-2.67,6.23l.73.36c3.01-1.78,5.12-4.62,6.43-7.92l1.39-3.48,3.14-1.24c.48.11.39.41-.16.38-2.73,1.88-4.21,5.07-4.12,8.46l.64,4.98c1.65-.4,2.31-1.8,2.45-3.19-.51.91-.96,1.62-1.75,2.39-1.27-5.06-.55-8.46,2.71-12.25l-.54,4.2c-.08.65-.11,1.22.25,1.58.3-2.24.29-4.34,1.48-6.35.59.79,1.13,2.13,1.94,2.39l4.03,1.3-2.96.66,4.61-.16,11.41-1.92c.5,2.61,1.18,4.94,2.99,6.7l1.1-4.5c.25-1.03-.15-2.35-.28-3.59l2.59-.89,4.24,4.16c.3.29.45.75.79.83-.14-2.59-1.02-4.69-2.26-6.82,1.34-.82,1.73-2.27,1.98-3.49l3.36-2.39c.95-.68,1.78-1.26,2.81-1.7-.01-.11-.05-.4-.04-.39.02.01.22,0,.39,0l1.12.03c-3.4-1.75-6.31-1.85-9.82-.19-1.15-.31-2.16-.6-3.31-1.21l4.53.11-2.35-1,2.54-1.94c.44,1.85,1.72,2.46,3.5,2.25.68-.08,1.64-.44,1.88-1.01.27-.64-.02-1.61-.5-2.14-.98-1.08-2.51-.76-3.61-.35-.28-1.54-3.46-2.98-3.92-2.87-.97.24-1.76.89-2.72,1.45.1-1.35-.29-1.89-1.05-2.42.03-.46-.39-.98-.82-1.08-.29-.07-.65-.02-1.04.05-.12-.07-.6-.45-.68-.29l-.39.79c-.23.08-1.19-.64-1.16-1.09.57-8.5,1.01-16.73.48-25.21-.23-3.61-9.47-5.96-14-5.57l.05-12.52-.48-7.17-.12-2.36,3.93.98c-1.05-1.54-2.2-2.39-3.62-3.31.83-.44,1.54-.88,1.9-1.51s.27-1.67-.31-2.2c-.84-.76-1.97-.86-3.1-.47-.74.25-1.44,1.08-2.18,1.89,1.2-4.33,8.56-1.93,12.24-7.3-2.23.99-3.78,2.81-6.1,2.81l2.64-1.62-.95-.28,3.83-.98c-2.41-.48-4.55.09-6.99,1.46,2.42-2.92,4.39-6.12,4.86-10.04l-.94-1.3c-2.72,1.68-3.65,4.96-3.94,8.18-.13,1.42-.64,2.49-1.78,3.57-.02-.41.26-.83.67-1.32,1.24-1.49.29-4.84-.89-5.27s-2.25,1.38-2.48,3.67c-.46-1.87-1.14-3.63-2.15-5.49-1.03,2.42-1.21,4.95-.51,7.9l-3.03-.86c-.98-.28-2.11-1.04-3.09-.21-2.91,2.45-5.46.07-6.02,1.6-.34.92-.91,1.8-1.62,2.22-1.44.85-.53,2.38-.81,3.4s-1.13,1.89-.96,3.3c-1.31-1.45-2.49-2.69-4.03-3.84-.68-.5-1.01-1.17-1.37-2.03-1.17,4.41,2.23,8.36,6.81,8.65-1.83.72-3.04,2.23-3.61,4.33l-11.9-.37c-5.3-.17-10.4-.79-15.57-1.88-2.55-.54-7.58-2.03-7.13-2.71.07-.11.38-.46.55-.54l5.8-2.73c.57-3.01,1.02-6.35.95-9.71l-.09-4.92c2.4.78,4.92,1.46,7.68,1.76,8.1.87,16.08,1.02,24.18.1l5.96-.96c1.55-.25,3.07-.69,4.45-1.66-3.72.93-7.4,1.37-11.4,1.55-7.94.34-15.66.25-23.52-.72-2.32-.29-4.39-.66-6.52-1.54,1.3-.79,2.38-.9,3.64-1.13,3.36-.59,6.61-1.08,10.04-1.27,6.45-.36,19.18-.74,24.36.93l3.94,1.27c-1.01-.94-2.23-1.52-3.68-1.8-11.21-2.12-22.61-2.57-33.92-.97-1.98.28-3.75.65-5.47,1.61-.81.45-1.39,2.19-1.4,3.12l-.03,7.84.55,5.95c-3.56-.05-8.26,1.06-8.29,4.57-.13,3.98-.04,7.84.2,11.82l.61,1.38,1.09-11.45c2.29.98,4.63,1.65,7.06,2.11,8.61,1.63,18.7,1.83,27.54.96l-.75,3.46,1.42-1.32c2.34-1.2,3.69-3.15,3.97-6.04,1.4,1.29,2.87,1.43,4.64,1.36,1.59-.07,3.75,1.56,4.78.56.93-.91,1.19-2.24,1.18-3.62l1.75.3c1.41.24,2.32-.43,3.02-1.74,1.12.4,2.09.88,2.85,1.8-.52.88-1.51,1.55-2.44,1.86l-4.79,1.58c2.76.3,5.19-.78,7.82-2.07l-.46,7.1-.05,14.17c0,1.08-.25,1.9-1.28,2.44-1.57.81-3.3,1.47-5.12,1.81-5.19.99-10.28,1.65-15.58,1.86l-15.5.62c3.64-.99,5.82-2.97,7.66-6.55l-3.45,1.12c-5.81,0-6.16,4.49-10.09,5.82l.63-1.2c.12-.23-.24-.73-.32-1,.14-1.38-.62-2.47-1.39-3.38.26-1.46.62-3.29-.86-4.25-.76-.49-1.29-1.16-1.55-2.08-.31-1.11-1.61-1.5-2.72-1.14-3.91,1.29-4.71-3.17-7.91-1.16-1.38.87-2.97.43-4.43,1.95l-.07-1.97-1.96-4.87-1.23,3.77c-.85,2.61-.69,5.13-.12,7.72l-2.2-2.61.85-2.93c.63-2.18,1.12-4.17.63-6.37l-1.16-5.2c-1.97,3.37-2.86,7.33-2.47,11.32l-2.01-3.12,1.9-4.61c1.26-3.05.84-6.48-.34-9.57l-2.35,6.05c-.51,1.32-.52,2.62-.88,4.3l-1.02-4.11c-.15-.61.25-1.66.58-2.1l-.12-.15-.45.26c.06-3.12.79-6,2.91-8.42l-.13,3.03c-.09,1.98-.98,3.6-2.26,4.92l.22.12ZM177,90.6c1.47.04,2.67-.58,2.52-1.05-.59-1.85-10.29-2.22-14.17-1.58l5.65.51c2.83.26,5.44.21,8.23.97l-2.23,1.15ZM141.87,106.2l.31-10.88c.03-1.03-.1-1.95-.4-2.95-.85,2.44-.97,5.43-.69,7.86.23,2.02.13,3.93.78,5.96ZM143.22,102.39c.26-2.2.17-4.08-.19-6.28-.7,2.23-.42,4.25.19,6.28ZM169.39,110.25l-8.89-.61-14.28-.75c-2.53-.13-6.03-.88-6.58-2.7-.47,1.15.41,2.3,1.46,2.6l4.19,1.2c4.87.9,9.71,1.22,14.68,1.3,3.23.05,6.25-.2,9.41-1.04ZM189.69,114.02l-.56-1.22c-.25,4.99-.64,9.7-.46,14.54,1.03-4.49,1-8.74,1.02-13.32ZM187.34,126.21c.56-2.09.6-4.26.35-6.43-.42,2.12-.73,4.12-.35,6.43ZM148.55,136.99c2.49-.46,3.67-3.46,2.68-5.6-1.05-.25-2.21.49-2.59,1.19-.49.89-.62,1.93-.41,2.99.34-1.39.72-2.75,2.22-3.32.56,2.03-.64,3.16-1.91,4.73ZM121.11,168.07c.04.75,0,1.19.46,1.44.1-9.76-.06-19.29-.66-28.88-.95,3.75-.92,7.23-.72,10.88l.92,16.56ZM201.56,141.56l-10.84,2.81c-5.5,1.18-10.82,1.53-16.51,1.97,8.74.78,19.33-.81,27.34-4.78ZM123.12,159.08l.07-8.66c0-.48-.19-1.02-.48-1.31l-.28,6.54.26,3.65c0,.09.39.51.4.42l.04-.65ZM196.39,163.04c-1.09-2.11-3.37-2.69-5.38-2.02.63.14,1.59.17,2.04.39l3.34,1.63ZM151.7,201.48c4.49-2.68,6.17-7.8,5.15-12.55-.57.38-.78.89-.82,1.36-.38,4.2-2.05,7.66-4.32,11.19ZM169.08,197c-1.33-2.3-1.62-4.76-2.27-7.48-.4,3.89.94,7.99,4.15,10.74l-1.88-3.26ZM149.32,202.86c-1.78.28-3.33,1.43-4.81,2.68,1.86-.32,3.59-.94,4.81-2.68ZM179.79,209.78l-9.03,1.64c3.21.17,6.29-.43,9.03-1.64ZM200.29,239.13l7.36-.13,4.14-.36-9.82-.14-21.9-.4-34.75-.31-18.81.22-17.83.93,21.2.98h24.53s15.13-.23,15.13-.23l18.84-.29,11.92-.28ZM189.6,282.32l7.27-.02c-1.42-.53-3.03-.85-2.88-2.53.12-1.35.79-2.77,1.48-4.01h14.55c.66,1.41,1.49,3.02,1.26,4.51-.25,1.61-2.03,1.63-3.38,2.03l18.36.02c-1-.46-1.76-.94-2.32-1.88-.33-1.32-.66-2.64-.65-4.01l.06-16.98,20.25,23.98-.11-4.43-.02-18.28.42-3.16c.14-1.04,1.2-1.86,2.08-1.91.74-.05,2.51.43,2.51,1.45l-.02,22.69c0,1.37-1.97,1.77-2.94,2.49l13.86-.05c2.38,0,4.75-.85,6.81-1.91,6.36-3.26,8.46-10.7,6.25-17.15-1.89-5.5-7.86-7.82-13.51-7.83l-19.12-.02c1.11.53,1.92,1.18,2.43,2.32l.49,3.58-.04,13.09-12.87-15.12-3.1-3.86h-7.5s3.3,3.1,3.3,3.1l-.02,19.04c0,2.15-.68,4.36-2.39,4.6-.52.07-1.68-.37-1.93-.9l-2.18-4.61-8.8-22.28-5.05,2.71c-.02.33-.03,1.17-.15,1.44l-8.92,20.6c-.69,1.59-1.85,2.72-3.29,3.11l-.16.2ZM273.83,282.3l17.61.02c-.99-.45-1.99-.76-2.48-1.32-.45-.52-.43-1.82-.16-2.43l1.22-2.81h14.57c.7,1.35,1.51,3.02,1.3,4.51s-1.92,1.57-3.19,2.03h12.16c-1.25-.45-2.38-1.13-2.94-2.53l-10.12-25.53-5.1,2.75-.03,1.29-8.32,19.21c-.99,2.29-2.35,4.93-4.42,4.5-.58-.12-1.96-.64-1.96-1.41v-23.73c.62-.89,1.92-1.1,2.99-1.51h-11.11c.79.54,2.77.54,2.77,1.84l.02,23.49c-.44.98-1.81,1.21-2.82,1.63ZM54.7,282.05c6.03-1.78,9.5-7.02,9.55-13.09s-3.2-11.15-8.89-13.13c-4.46-1.56-9.41-1.38-13.65.73-4.71,2.34-7.19,6.96-7.23,12.14s2.5,10.12,7.4,12.49c3.94,1.9,8.49,2.14,12.82.86ZM137.98,281.62c5.37-2.15,8.27-7.06,8.33-12.65.06-5.93-3.16-11.07-8.79-13.1-4.03-1.45-8.41-1.42-12.41.09-5.52,2.09-8.62,7.16-8.57,13.01s3.23,10.81,8.76,12.81c4.07,1.47,8.54,1.5,12.7-.16ZM27.02,282.31l-2.75-.81c-.34-.38-.81-1.14-.81-1.73v-23.75c1.94-.27,3.92-.04,5.62.84,2.34,1.36,2.75,3.79,2.71,6.53l2.54-8.07H9.04s-1.24,7.98-1.24,7.98c1.05-1.93,1.88-3.64,3.29-5.14,1.96-1.65,4.37-2.37,7.09-2.15v23.77c0,.83-.57,1.71-1.31,1.9l-2.49.63h12.64ZM83.95,282.33l8.12-.03c-2.13-1.27-3.75-2.42-5.08-4.25l-5.21-7.15c4.73-1.51,8.01-4.68,7.37-9.41s-5.33-6.15-9.81-6.14h-15.47c.92.54,2.79.58,2.79,1.85v23.29c0,1.3-1.99,1.31-2.77,1.83h11.1c-1.06-.36-2.36-.67-2.97-1.45l-.05-9.42,4.55.03,6.88,9.68.55,1.17ZM109.16,282.31c-1.38-.49-3.16-.42-3.58-1.79l-.05-24.5c2.37-.31,4.67.02,6.45,1.43,1.7,1.49,1.76,3.5,1.89,5.81l2.52-7.94h-25.31s-1.22,8.04-1.22,8.04c1.13-2.19,2.04-4.18,3.94-5.71,1.88-1.26,4.12-1.81,6.42-1.65v23.79c0,.66-.45,1.64-.99,1.79l-2.66.74h12.59ZM168.99,274.35l-3.42,4.07c-1.75,2.08-4.39,3.21-7.12,3.22l-4.41.02v-24.9c1.14-.88,2.16-1.03,3.4-1.43h-11.67c1.15.46,2.21.72,2.97,1.54v21.36c0,1.95-1.41,3.17-3.02,4.08h19.62s1.45.83,1.45.83l2.2-8.79ZM189.55,281.82l1.85-7.47-3.41,4.07c-1.74,2.08-4.39,3.21-7.12,3.22l-4.42.02.02-24.74c.7-1.13,2.25-1.12,3.37-1.57h-11.65c1.14.45,2.23.72,2.95,1.54l.04,20.58c0,2.24-.92,3.85-3.08,4.86h19.67s1.4.84,1.4.84l.31-1.04.07-.29ZM106.13,294.38c-3.2.17-5.37,2.81-5.08,5.84.27,2.79,2.73,4.99,5.69,4.78s5.17-2.61,4.96-5.69c-.18-2.71-2.49-5.1-5.58-4.94ZM179.48,297.62l.95-.59c-1.72-2.96-5.57-3.43-7.98-1.5-2.66,2.13-2.61,5.96-.2,8.19,2.5,2.08,6.25,1.68,8.11-1.32l-.66-.51c-.12-.09-.5.24-.61.38-1.57,2.01-4.59,2.16-6.4.26-1.66-1.75-1.49-4.7.58-6.22s4.86-.97,6.2,1.31ZM225.55,305.01c1.68.01,2.86-1.14,3.04-2.41.21-1.51-.55-2.56-1.93-3.18l-2.29-1.04c-.88-.4-1.09-1.66-.45-2.31.89-.91,2.31-.72,3.16.18.19-.03.75-.34,1-.53-.77-1.1-2.15-1.52-3.4-1.28-1.36.26-2.19,1.26-2.26,2.51-.06,1.13.62,2.11,1.76,2.64l2.5,1.14c.37.17.81.97.84,1.37.02.35-.29,1.1-.6,1.31-1.32.91-3.06.49-3.85-.98l-1.01.47c.56,1.5,1.9,2.1,3.5,2.12ZM84.47,294.55l-2.65,8.32-2.48-8.25c-.4-.06-1.14-.08-1.62-.06l-2.48,8.23-2.59-8.16-1.23-.11,3.18,10.19c.3.17,1.02.21,1.29.02l2.61-8.84,2.69,8.85c.33.21,1.05.15,1.28-.09l3.14-10.12-1.15.02ZM91.2,300.2v-1.08s-3.93,0-3.93,0v-3.55s4.58,0,4.58,0l-.08-1.09h-5.62s0,10.41,0,10.41h5.69s.01-1.08.01-1.08l-4.57-.03v-3.56s3.93-.02,3.93-.02ZM99.45,304.9l1.26-.08-3-4.67c1.72-.44,2.51-1.68,2.34-3.13-.14-1.21-1.25-2.51-2.66-2.52l-3.94-.02v10.18c.19.19.97.22,1.09.06l.03-4.57,1.97.03,2.91,4.71ZM121.57,304.74l.06-10.24h-1.06s-.11,8.33-.11,8.33l-6.19-8.19-1.17-.15v10.39s1.12,0,1.12,0l.1-8.33,5.77,7.7c.24.33,1.33.9,1.48.48ZM124.69,304.15v-9.65s-1.14.1-1.14.1v10.3s.91.02.91.02c.15,0,.23-.51.23-.78ZM142.23,304.69l-3.66-10.14-1.33.08-3.46,9.56-4.28-4.88,4.57-4.66c-.39-.2-1.35-.23-1.64.06l-4.44,4.4-.25-4.61-1.1.12v10.28s1.11-.05,1.11-.05l.22-5.41,4.87,5.45h1.93s.89-2.44.89-2.44l4.54.04.83,2.23c.13.23,1,.22,1.21,0ZM146.72,302.52l-1.05.16c.04,1.34,1.11,2.24,2.39,2.34,1.16.1,2.78-.69,2.78-2.11l.05-8.44h-4.74s.04,1.14.04,1.14l3.58.02v6.59c0,.92-.6,1.69-1.51,1.67-.69,0-1.22-.51-1.54-1.37ZM157.91,302.45l.64,1.97c.06.18.42.59.6.54l.76-.22-3.67-10.14-1.32-.06-3.7,10.26h1.23s.85-2.36.85-2.36h4.62ZM168.98,304.74l.06-10.24h-1.06s-.11,8.33-.11,8.33l-6.19-8.19-1.17-.15v10.39s1.12,0,1.12,0l.1-8.33,5.77,7.7c.24.33,1.33.9,1.48.48ZM188.2,304.88v-1.14s-5.82,0-5.82,0l5.64-9.24-7.18-.03-.02,1.12,5.17.09-5.65,9.2h7.86ZM194.63,300.2l-.07-1.08h-3.94s.05-3.54.05-3.54l4.47-.02.05-1.08h-5.67s-.01,10.41-.01,10.41h5.65s.05-1.09.05-1.09h-4.57s.04-3.57.04-3.57l3.96-.02ZM201.8,303.76l-3.83-.03v-9.13s-1.14-.09-1.14-.09l.02,10.38h5s-.04-1.13-.04-1.13ZM207.64,300.2v-1.08s-3.94,0-3.94,0v-3.55s4.58-.01,4.58-.01l.02-.86c0-.15-.48-.23-.64-.23l-5.08.02v10.4s5.69,0,5.69,0v-1.07s-4.56-.03-4.56-.03v-3.56s3.93-.02,3.93-.02ZM221.59,294.57l-2.63,8.22-2.5-8.23-1.62.02-2.46,8.25-2.6-8.14c-.21-.19-1.01-.19-1.19-.04l3.16,10.15h1.25s2.64-8.84,2.64-8.84l2.66,8.77c.27.22.99.16,1.28-.06l3.16-10.14-1.17.05ZM245.28,304.69l-3.66-10.14-1.33.08-3.46,9.56-4.28-4.88,4.57-4.66c-.39-.2-1.35-.23-1.64.06l-4.44,4.4-.25-4.61-1.1.12v10.28s1.11-.05,1.11-.05l.22-5.41,4.87,5.45h1.92s.9-2.44.9-2.44l4.54.04.83,2.23c.13.23,1,.22,1.21,0Z"/>
      <path d="M116.95,112.49c-.33.44-.73,1.49-.58,2.1l1.02,4.11c.36-1.68.37-2.98.88-4.3l2.35-6.05c1.17,3.09,1.6,6.52.34,9.57l-1.9,4.61,2.01,3.12c-.39-3.99.49-7.95,2.47-11.32l1.16,5.2c.49,2.2,0,4.2-.63,6.37l-.85,2.93,2.2,2.61c-.57-2.59-.73-5.11.12-7.72l1.23-3.77,1.96,4.87.07,1.97c1.47-1.52,3.05-1.08,4.43-1.95,3.2-2.01,4,2.45,7.91,1.16,1.11-.37,2.41.03,2.72,1.14.26.93.79,1.59,1.55,2.08,1.48.96,1.12,2.79.86,4.25.77.91,1.53,2,1.39,3.38.08.27.45.77.32,1l-.63,1.2c3.92-1.33,4.28-5.83,10.09-5.82l3.45-1.12c-1.84,3.58-4.02,5.56-7.66,6.55l15.5-.62c5.3-.21,10.39-.87,15.58-1.86,1.82-.35,3.55-1,5.12-1.81,1.03-.53,1.27-1.36,1.28-2.44l.05-14.17.46-7.1c-2.63,1.29-5.06,2.37-7.82,2.07l4.79-1.58c.93-.31,1.91-.98,2.44-1.86-.76-.91-1.73-1.4-2.85-1.8-.7,1.31-1.62,1.98-3.02,1.74l-1.75-.3c.01,1.37-.24,2.71-1.18,3.62-1.03,1-3.18-.63-4.78-.56-1.76.08-3.24-.07-4.64-1.36-.28,2.89-1.63,4.85-3.97,6.04l-1.42,1.32.75-3.46c-8.84.87-18.92.67-27.54-.96-2.43-.46-4.77-1.13-7.06-2.11l-1.09,11.45-.61-1.38c-.24-3.98-.33-7.84-.2-11.82.03-3.51,4.73-4.62,8.29-4.57l-.55-5.95.03-7.84c0-.94.58-2.67,1.4-3.12,1.72-.95,3.49-1.33,5.47-1.61,11.3-1.6,22.71-1.15,33.92.97,1.46.28,2.68.85,3.68,1.8l-3.94-1.27c-5.18-1.67-17.91-1.29-24.36-.93-3.43.19-6.68.68-10.04,1.27-1.26.22-2.34.34-3.64,1.13,2.13.87,4.2,1.25,6.52,1.54,7.86.97,15.58,1.06,23.52.72,4-.17,7.68-.61,11.4-1.55-1.38.97-2.9,1.41-4.45,1.66l-5.96.96c-8.09.92-16.08.77-24.18-.1-2.75-.3-5.28-.99-7.68-1.76l.09,4.92c.06,3.36-.38,6.7-.95,9.71l-5.8,2.73c-.17.08-.48.43-.55.54-.45.68,4.58,2.18,7.13,2.71,5.16,1.09,10.26,1.72,15.57,1.88l11.9.37c.58-2.11,1.78-3.62,3.61-4.33-4.58-.29-7.98-4.24-6.81-8.65.36.87.69,1.53,1.37,2.03,1.54,1.14,2.71,2.39,4.03,3.84-.18-1.41.67-2.27.96-3.3s-.62-2.55.81-3.4c.71-.42,1.28-1.3,1.62-2.22.56-1.53,3.11.85,6.02-1.6.98-.82,2.11-.06,3.09.21l3.03.86c-.7-2.95-.51-5.48.51-7.9,1.02,1.86,1.7,3.62,2.15,5.49.23-2.29,1.24-4.12,2.48-3.67s2.13,3.78.89,5.27c-.41.49-.69.91-.67,1.32,1.14-1.08,1.65-2.15,1.78-3.57.29-3.22,1.22-6.5,3.94-8.18l.94,1.3c-.47,3.92-2.44,7.12-4.86,10.04,2.44-1.37,4.58-1.94,6.99-1.46l-3.83.98.95.28-2.64,1.62c2.32,0,3.87-1.82,6.1-2.81-3.68,5.37-11.04,2.96-12.24,7.3.73-.81,1.44-1.63,2.18-1.89,1.14-.39,2.27-.29,3.1.47.58.53.66,1.58.31,2.2s-1.07,1.07-1.9,1.51c1.42.92,2.57,1.77,3.62,3.31l-3.93-.98.12,2.36.48,7.17-.05,12.52c4.53-.39,13.77,1.96,14,5.57.53,8.48.1,16.71-.48,25.21-.03.44.93,1.17,1.16,1.09l.39-.79c.08-.17.56.21.68.29.38-.07.75-.12,1.04-.05.42.11.85.63.82,1.08.76.54,1.15,1.07,1.05,2.42.96-.56,1.74-1.21,2.72-1.45.46-.11,3.64,1.33,3.92,2.87,1.1-.41,2.63-.73,3.61.35.48.53.77,1.49.5,2.14-.24.57-1.19.93-1.88,1.01-1.77.21-3.06-.41-3.5-2.25l-2.54,1.94,2.35,1-4.53-.11c1.14.61,2.16.91,3.31,1.21,3.51-1.66,6.41-1.56,9.82.19l-1.12-.03c-.17,0-.37,0-.39,0-.01-.01.03.28.04.39-1.03.44-1.86,1.02-2.81,1.7l-3.36,2.39c-.25,1.22-.63,2.67-1.98,3.49,1.23,2.13,2.12,4.22,2.26,6.82-.34-.08-.49-.54-.79-.83l-4.24-4.16-2.59.89c.13,1.24.53,2.56.28,3.59l-1.1,4.5c-1.81-1.76-2.49-4.09-2.99-6.7l-11.41,1.92-4.61.16,2.96-.66-4.03-1.3c-.81-.26-1.35-1.6-1.94-2.39-1.18,2.01-1.17,4.11-1.48,6.35-.35-.36-.33-.94-.25-1.58l.54-4.2c-3.26,3.79-3.98,7.19-2.71,12.25.8-.78,1.24-1.48,1.75-2.39-.14,1.39-.8,2.79-2.45,3.19l-.64-4.98c-.09-3.38,1.39-6.57,4.12-8.46.55.03.64-.26.16-.38l-3.14,1.24-1.39,3.48c-1.31,3.3-3.42,6.14-6.43,7.92l-.73-.36c.46-2.08,1.36-3.97,2.67-6.23l-7.13.78,1.55,5.36c.85,2.96,2.9,5.28,5.55,6.84l5.66,3.34c1.95,1.15,3.47,3.27,3.47,5.62-.78-1.96-1.93-3.48-3.86-4.48l-7.66-3.96c-4.33-2.61-6.33-7.72-6.01-12.61l-13.52.12c.72,6.25-2.73,11.97-8.51,14.16l-6.62,3.73c-.25.14-.65.72-.61.98s.61.71.89.8c7.83,2.42,15.76,3.47,24.11,3.53v.41c-7.18.57-14.01.26-20.82-1.59-1.88-.51-3.49-1.32-4.98-2.51-.52,1.22.35,2.21,1.52,2.67,4.47,1.77,9.2,2.37,14.06,2.69,6.6.43,13.03.46,19.62-.23l7.19-1.27c1.78-.31,3.29-1.03,5.02-1.76-1.13,1.56-2.82,2.46-4.63,3.14-7.76,2.93-18.59,2.73-27.11,2.2-4.77-.3-13.3-1.47-16.2-4.29-1.09-1.06-.77-2.23-.38-3.53l.46-1.56c1.2-1.53,2.74-2.6,4.42-3.56l5.73-3.28c3.51-2.01,5.34-6.67,5.91-10.79l-14.12-1.05c-3.91-.29-7.54-1.38-11.4-1.9-6.34-.85-15.49-2.03-20.2-5.83-1.26-1.02-1.59-2.32-1.75-3.76-.17-1.58,0-2.74,1.35-3.81,2.65-2.11,6.02-3.23,9.48-3.58-.16-5.43-.41-10.68-.12-16.12l.81-15.42c.24.21.56.79.57,1.13l.74,13.52.29,19.75c2.65,3.43,9.88,4.76,14.65,5.45,10.43,1.52,20.76,2.3,31.32,2.65,1.9.06,3.51.01,5.28.66l7.12,2.6c1.45.53,3.39-.43,5-.84-2.39-.54-4.81-1.04-6.77-2.43l4.97,1.31c-2.58-2.11-6.51-3.93-9.2-2.8,2.41,2.49,5.36,3.29,8.65,3.88-3.65.15-7.44-1.32-10.16-4.15,2.35-1.2,4.69-.78,6.9.07,3.79,1.46,4.89,4.72,8.71,3.02-2.34-.25-4.27-.8-5.94-2.25-2.72-2.35-5.09-5.79-4.22-9.06.03-.12.26.19.35.32,2.46,1.23,4.09,3.28,5.36,5.71l1.69,3.2c.54,1.03,1.62,1.56,2.8,1.34l-1.77-2.18c-.33-.41-.48-1.39-.22-1.91.22-.45.97-.91,1.59-1.25-.57-.53-1.29-1.43-1.35-2.1-.21-2.37,2.04-2.84,3.04-5.07.69-1.53,1.95-1.72,3.38-1.33.56-.65,1.44-1.3,2.25-1.25.86.05,1.63.58,2.37,1.35.42-1.1,1.36-1.82,2.71-1.54-2.74-3.65-2.85-6.92-.99-10.89.05,1.01.09,2.02.36,2.89l1.6,5.14,1.04,3.55,1.49.53-1.11-3.98-.8-2.88c.41-1.03,2.01-.9,2.62-.3l-.24.31c-.06.07.04.15.2.36l1.13,1.51c.15.2.83.12,1.01-.07s.32-.71.31-1.08l-.31-21.5c-2.64,1.47-5.41,2.52-8.4,3.23-14.28,3.36-31.39,3.27-46.19,2.2.92,2.55,1.76,4.93,1.31,7.74l-2.03-2.49c-2.06-1.98-3.51-4.25-3.87-7.35-2,2.62-4.47.86-8.18,2.3-.78.3-2.23.59-2.91.21-1.18-1.21-1.29-2.76-1.11-4.32l-3.22.76,2.28.8v.31s-2.55-.39-2.55-.39l-1.78,1.79c-1.39,1.4-2.23,2.82-2.28,4.89-1.38-2.81-1.95-5.18-.32-7.69-2.94-.73-7-2.24-6.86-4.51.03-.49.71-1.22,1.18-1.5l-.35,2.53,4.32-1.37c1.09-.34,2.67-.03,3.91.07-.41-1.54-1.98-1.77-3.14-1.41-2.88.9-5.49.07-7.75-1.68-1.28-1-2.56-1.86-3.58-3.22l3.48.22c2.54.16,4.71.48,7.06,1.73l-2.12-2.9-3.17.28c-1.89.17-3.44-.64-4.97-1.6l-4.52-2.81c1.58-.64,3.24-.43,4.88-.39,2.43.07,4.21.74,6.32,2.24l-.95-2.24-2.61-.94c-2.69-.97-4.49-2.85-5.8-5.3l-2.15-4.03,3.5,1.66c2.07.98,3.42,2.69,4.85,4.52-.22-1.23-.58-2.59-1.05-3.64-1.85-1.25-3.68-2.36-4.68-4.37-1.26-2.52-2.02-5.29-1.98-8.1l2.36,2.8c1.29,1.53,2.6,2.83,3.17,4.85l.33.37-.33-2.67c-2.37-4.21-1.54-9.1.8-13.5l.75,2.91c.71,2.75.66,5.4-.3,8.14-.5,1.42-.74,2.96-.26,4.28.65-3.3,1.7-6.37,4.59-8.41l-.49,5.1c-.19,1.97-.94,3.67-2.55,4.94l-.17.23ZM195.43,90.84l.74-.14.96-3.93c-1.64,1.52-2.43,3.47-2.92,5.84l1.22-1.78ZM195.67,91.2v.17s0,.17,0,.17v.17s0-.17,0-.17v-.34ZM187.19,95.52l.56,2.66c.3-2.35-.51-4.66-1.37-6.88-.8,2.53-.2,4.71.57,6.88l.24-2.67ZM190.78,96.4c1.33-.47,1.22-3.38.16-3.92-1.21.53-1.57,3.38-.16,3.92ZM190.44,97.64c-.92-.73-1.39-1.22-1.81-1.88l-.27,5.6c.97-1.02,1.78-2.38,2.08-3.72ZM183.8,100.61c.16-.32.77-.98,1.09-.87l1.3.46c-.09-2.93-2.2-2.03-4.36-3.26-.82-.47-1.68-.51-2.49.22,2.63,1.25,2.49,2.99,2.29,5.43l.76-1.27-.11,2.42,1.52-3.12ZM195.71,97.25h-.17s.17,0,.17,0h.34s-.17,0-.17,0h-.17ZM177.61,104l-.26-.96,1.88-.66c.11-.04.43.53.5.43l.37-.55c.06-.09.24-.43.33-.37l.58.47c.52-2.6-1.06-4.8-2.3-4.32-1.02.39-2.07.53-3.12.22-1.67-.5-1.27,1.64-2.44,2.22-.99.5-1.43,1.44-1.03,2.58.87,2.49,4.54,3.25,4.64,2.5l.13-.93c.03-.22.55-.52.72-.64ZM114.81,103.49l.45,3.75c.86-3.05,1.03-6.18-.02-9.25-1.07,2.64-1.49,5.14-.91,7.72l.48-2.22ZM183.2,108.46c1.02.33,2.7.27,3.25-.83,1.91-3.83-1.25-8.77-2.2-6.87l-1.69,3.39,1.71-1.87c1.72-1.88,2.23,2.05-1.07,6.18ZM187.17,102.32c.26-.79-.1-1.43-.72-1.78l.72,1.78ZM192.91,103.01c-.85-1.21-3.33-.6-3.36.81.13.58,1.57.73,2.14.57.46-.13,1.27-.77,1.22-1.38ZM179.22,109.15c1.9-.02,3.82-.69,4.45-2.54l1.16-3.41-3.14,2.73c-1.62,1.4-3.37,2.31-5.53,3.25l3.07-.02ZM167.31,105.75c.8.7,1.22,1.08,1.97,1.49-1.06-1.6-2.11-2.63-3.7-3.78.38,1.26.85,2.09,1.45,3l.28-.72ZM116.9,112.14c1.28-1.32,2.17-2.95,2.26-4.92l.13-3.03c-2.12,2.42-2.85,5.29-2.91,8.42l.45-.26.06-.2ZM189.43,105.27l-.92-.9c-.17-.16-.77.35-.74.59.03.2.19.72.38.66l1.28-.36ZM174.23,108.91c-.21-.22-.48-.81-.56-1.08-.07-.23.37-.82.63-.84l2.96-.2c-1.15-1.05-3.1-.17-5.23-2.46-.98.77-1.25,2.33-.82,3.45l1.49.94.56,1.63c.87.96,2.21,1.18,3.46.92,2.63-.55,3.98,1.16,5.09.05.53-.53.76-1.44.66-1.99-2.7.54-6.88.94-8.23-.42ZM191.62,106.91c-1.42-.86-2.67-1.15-4.04-.4l4.04.4ZM114.42,112.78l-1-2.28c-.65-1.49-1.48-2.71-2.82-3.85.22,2.04.75,4.14,2.05,5.71l.16-.24-.68-2.14,2.06,3.17.23-.37ZM174.36,107.81c1.03.97,2.15.76,2.94.22l1.34-.92-1.29.42c-1.02-.29-2.28-.4-2.99.29ZM171.16,112.65c-.18-.71-.01-1.15.18-2.07-1.78,1.16-2.42,3.05-2.8,5.2,1.19-.72,2.46-1.88,2.62-3.13ZM119.46,115.08l-.44,5.03c1.7-2.78,2.27-5.56,1.41-8.64-.8,1.92-1.78,3.8-1.92,6.12l.95-2.51ZM112.9,112.78l.19-.47-.19.47ZM114.45,113.53l.18-.43-.18.43ZM113.16,118.51l3.59,2.66c-1.23-2.73-3.25-4.68-6.1-5.78,1.02,2.57,2.49,4.88,5.04,6.01l-2.53-2.89ZM123.11,126.88c1.71-3.58,1.32-6.02-.06-9.72-1.26,3.11-1.68,6.52-.55,9.7l.23-4.59.37,4.61ZM127.65,133.18l.63-2.67-.77,1.39c.5-2.96,1.07-5.89-.62-9-1.08,2.47-1.53,5.42-.48,8.08-.02-1.46-.12-2.67.17-4.04.15,2.22.34,4.19,1.07,6.24ZM117.39,125.93l.66-.11c-1.8-1.09-3.96-1.39-6-1.07l3.99,2.66c1.17.78,2.81.61,4.35.5-.93-.81-2.07-1.46-3.18-1.79l-.16-.05-.96-.3h1.17s.06.04.14.16ZM133.84,133.72l-.29-3.21.9,1.45c-.34-2.67-.23-5.12,2.49-6.23-.81-.93-2.03-.9-2.99-.24-2.24,1.54-4.79.08-4.88,3.8.44-.23,1.17-.55,1.6-.53.35.02.91.57,1.08.9l2.08,4.05ZM140.74,136.04c1.94-.17,3.33-.96,4.32-2.32.72-.99.95-2.76-.08-3.5-1.09-.79-1.66-1.35-2.03-2.79-.34-1.32-2.75.61-4.59-.42-.87-.48-1.92-.21-2.48.68-.7,1.11-.86,2.63-.68,3.97.39-.09.96-.31,1.03-.1l.4,1.3.43-.94,2.39.83-.55,1.18.92.23c.37.09-.15,1.97.93,1.88ZM128.43,129.86q0-.31,0,0,0,.6,0,0ZM130.26,131.3c.26,0,.8.27.99.49l1.95,2.26c-.52-1.7-1.33-3.01-2.31-4.27-1.04-1.33-4.12,4.03-1.94,8.4.64,1.3,2.45,1.5,3.76,1.13-1.97-2.5-4.1-8.05-2.45-8.02ZM118.42,130.55l-2.75-.22c2.51,2.62,5.86,3.68,9.36,2.96-1.98-1.52-4.12-2.54-6.6-2.74ZM153.1,143.36c7.77-.08,15.08-.32,22.57-.92,5.12-.41,9.91-1.15,14.95-2.01,4.38-.75,10.45-1.98,13.6-4.89-1.27-1.27-2.57-1.79-4.12-2.32l-7.68-2.64-.05,1.57c-.06,1.66-.51,2.89-1.9,3.76-1.96,1.23-4.16,1.78-6.54,2.2-7.85,1.39-15.69,1.59-23.68,1.31l-9.22-.91c1.23.88,2.02,1.6,2.65,2.91l-.59,1.94ZM140.96,139.89c-2.62-1.01-4.77-2.44-7.06-4.04-1.2-.83-2.05-1.55-3.18-2.72l1.3,3.52c.88,2.23,2.9,3.46,5.3,3.37l3.64-.13ZM154.33,136.36l-3.17,1.61c2.93-.06,5.55-1.34,7.42-3.88-2.94.13-4.82.25-6.65,2.71l2.41-.44ZM133.76,140.22c-.19.64-.02,1.7.57,2.28.51.5,1.51.58,2.24.3,3.45-1.35,6.1,1.11,8.02-1.6-.17-1.35.57-2.21,1.9-2.48.98-1.4.66-3.49-.9-4.5-1.78,2.13-4.12,2.36-6.9,2.54,1.56,1.34,4.75-.2,5.09,1.22.09.37-.13,1.27-.38,1.56-1.36,1.56-3.44,1.33-5.32,1.17-1.5-.13-2.83.2-4.32-.5ZM127.46,137.56l-.22-1.86c-2.19-.25-4.15.26-6.01,1.19,2.14,1.11,4.12,1.37,6.23.67ZM143.17,138.18c-1.39-.38-2.52-.43-3.74-.46l-1.51-.15,2.41,1.38c.79.45,2.24.3,2.83-.77ZM127.62,138.21l-.6.16-2.99.53c2.68,1.5,4.49-.94,3.59-.69ZM150.26,142.18c.69.46,2.06.45,2.47-.25-.44-2.01-2.59-3.23-4.68-2.48.43,1.1,1.18,2.04,2.21,2.73ZM129.74,140.23l-1.34.32.37-.77c.08-.17-.47-.58-.63-.48l-.58.36c-1.88,1.15-2.93,3.29-2.11,5.48l1.77-1.95,2.52-2.97ZM147.54,140.99l.3-1.81-2.03.61,1.73,1.2ZM150.26,148.41c-.23-3.17-1.64-5.7-3.82-7.41l.06.77c0,.1-.09.04-.52.09.64,2.51,2.01,4.95,4.29,6.55ZM198.15,160.09l-1.27-2.89c-.65,2.64.59,4.66,1.63,6.64l.16-.13-1.3-3.72.61.24.16-.13ZM202.84,165.65l.19-4.65c-.36-.89-1.3-1.74-2.38-1.95l.96,3.07c.29,1.28.71,2.48,1.23,3.52ZM198.19,160.69l.14-.46-.14.46ZM208.19,169.21c2.45-.02,4.91-1.98,4.42-2.62-.65-.84-2.25-.22-4.01-2.15-.98-1.07-3.29-2.63-4.87-3.05-.45,2.05-.26,3.67.5,5.43l.15-3.28,1.26,5.07c1.43.24,2.43-.1,3.89-.39l-1.33.99ZM198.76,163.85l-.13.13.14.38.13-.13-.14-.38ZM211.82,169.25c2.14-.4,3.72-1.57,4.71-3.38-.86-.7-1.96-1.43-3-1.7-.53-.14-1.7.73-1.85,1.07.94.27,1.87.74,1.75,1.67s-.99,1.65-1.61,2.33ZM199.02,164.49l.02.32c-.03-.59-.03-.59-.02-.32ZM201.53,166.95l-2.54-.68-1.38-.69c-.32-.16-1.1-.03-1.35.21-.89.89,1.29,2.77.86,4.83-.18.83-.29,1.45-.23,2.29,1.16-2.73,1.47-5.19,4.64-5.96ZM192.52,173.05c.84.03,1.09.1,1.17-.08l.33-.68c.07-.14.5.55.64.46l.73-.44.19,1.09.79-1.25c.43-2.1-.57-4.44-2.34-5.75-.69-.51-1.72-.47-2.2.16-.73.98-1.64,1.42-2.62,2.08-1.76,1.18-1.54,3.91-.38,5.45.78,1.03,1.61,1.77,2.82,2.18l1.67-.57-1.1-.75c-.18-.12-.09-.86-.05-1.06l.98.22-.64-1.07ZM190.4,166.61c-1.05-.25-1.65.09-1.86.95.78-.24,1.42-.56,1.86-.95ZM218.8,168.94c1.45-.13,2.27-.68,2.2-2.02-1.17-.21-2.88-.3-3.63.82-.37.56.8,1.25,1.43,1.19ZM201.76,174.88c1.14-1.03,2.03-3,1.34-4.65l-2.14-2.61c-1.78,1.18-3.34,3.43-3.16,5.54.06.66.92,1.22-.05,2.08,3.05-.77,3.94-5.2,4.01-.36ZM202.11,167.98v.17s0,.17,0,.17v.17s0-.17,0-.17v-.34ZM204.51,169.28l-1.79-1.38,1.09,1.85.47.24c.07.04.29-.66.22-.71ZM111.36,179.75l3.67,1.5,8.29,2.52,6.35,1.35c7.75.7,15.27,1.12,23.13,1.19l24.76.2,2.84-3.34-2.85.52c-3.86,1.26-7.74.95-11.2-1.22l-3.31-2.07c-6.94.39-13.6.12-20.54-.43-6.41-.51-12.6-1.43-18.69-3.38-2.53-.81-4.75-2.19-6.26-4.32l-.23-2.99-5.46,2.35c-1.79.77-3.99,2.35-3.64,3.36.64,1.86,5.59,3.69,8.49,4.34l11.14,2.48c8.29,1.58,16.46,2.32,24.89,2.55l12.38.34,6.05.16c-10.28.86-20.52.74-30.92-.02-9.91-.73-19.45-2.53-28.84-5.27l-.06.2ZM188.06,174.65c-1.2-1.59-1.38-3.07-1-4.97-.8.63-1.83,1.54-1.96,2.49-.23,1.6,1.51,2.64,2.96,2.48ZM207.84,172.58l2.22-1.42-4.06-.95c0,1.59-.4,2.76-1.52,4.15l2.04.37c.3-1.05.6-1.69,1.32-2.15ZM181.92,177.56l-1.32-2.62c-1.08-1.76-2.36-3.27-4.15-4.44.45,2.83,1.9,5.18,4.07,6.9l-.71-1.64,2.11,1.81ZM204.09,173.18c.89-.68.93-1.82.3-2.66l-.3,2.66ZM214,174.84l-1.5.82c1.34.2,3.19.45,4.32-.3l5.91-3.94c-3.24-.75-6.95.08-9.71,2.54l2.9-1.07c1.03-.38,2.19-.63,3.36-.5-1.9.53-3.48,1.47-5.28,2.45ZM207.19,174.68c1.14.08,2.83.23,3.48-.26l2.8-2.12-1.58-1.01c-1.06,1.5-2.35,2.63-4.42,3.1l.94-1.28c-.78.15-1.39.79-1.23,1.58ZM203.63,173.92l-.39.61c-.04.07.23.07.29.01l.25-.25c.06-.06-.11-.43-.15-.37ZM194.07,183.11l.95-1.96c-1.75-.01-3.44-.28-4.74-1.51-.4-.38.31-1.3.74-1.45.94-.32,1.62-.63,2.35-1.07-1.67-.14-2.88-.26-4.02-1.18-1.21-.97-2.82-1.23-4.13-.22-1.43,1.1.87,1.7,2.18,4.97.87,2.17,2.64.4,4.59.32-1.13.87-2.05,1.33-3.28,1.87l3.3,1c.84.26,1.6.14,2.05-.79ZM201.36,181.87c.65-.2,1.27-.69,1.5-1.18l-1.43.4c1.67-2.95,5.15-4.48,3.26-5.89l-2.98.96c-.94.3-2.09,3.77-5.73,4.94.08,1.01,1.06,2.13,2.09,1.8l3.29-1.03ZM210.95,180.26l-1.77-2.26c-.87-1.11-1.82-2.85-3.6-2.38,2.13,1.38,3.47,2.93,3.84,5.23l1.53-.59ZM192.12,179.44c3.07,1.95,7.06-.48,8.08-3.83l-1.95,2.04c-.77.94-1.98,1.43-3.21,1.37l-2.92.42ZM215.71,176.59l-4.28-.21c-.5-.92-1.51-.98-2.09-.57,1.97.7,3.33,1.38,4.73,2.74l1.64-1.96ZM194.49,177.9c1.99.47,3.08-.81,3.82-1.93-1.32.08-2.01.64-2.63,1.38l-1.19.55ZM211.32,177.65l.61,1.14-2.11-1.28c1.11,1.48,2.29,2.54,3.62,3.73l2.52,2.26c-.73-2.63-2.42-4.56-4.63-5.87ZM199.01,183.93l6.8-1.89-.24-4.16-1.73,2.79c-.63,1.02-1.18,1.93-2.46,2.19-.91.19-1.79.52-2.38,1.07ZM192.73,178.41l-.44-.16-1.39.67.15.18,1.68-.68ZM207.52,187.06l.85-2.68.47,2.28c.78-2.92.39-6.04-1.64-8.45l.88,3.96-1.65-3.8.19,5.09c.04,1.17.63,2.53.91,3.59ZM110.33,179.17l.32.02-.32-.02ZM110.91,179.3l-.13.13.37.16.14-.14-.38-.14ZM172.75,182.95l4.53-.13c-4.09-.22-7.72-3.31-11.58-2.24l2.04.96-.84.19c2.55,1.5,5.49,2.05,8.41,1.88l-2.56-.67ZM193.11,185.27l4.9-1.06c-1.39-.66-1.84-1.38-2.57-2.99l-.44,1.71c-.27,1.06-.96,1.71-1.88,2.34ZM180,187.23l1.43-3.4c-2.53,1.57-3.79,3.93-5.2,6.33-.58.98-1.07,1.88-1.31,3.27,2.08-1.62,4-3.64,5.08-6.2Z"/>
      <path d="M249.14,108.4c-10.61-28.3-33.97-51.88-62.91-61.2-16.31-5.25-33.47-5.28-49.84-.2-13.72,4.26-26.26,11.67-36.78,21.44-14.86,13.8-25.21,31.56-29.88,51.29-1.47,6.24-2.39,12.29-2.95,18.69-.76,8.78-1.16,17.37-1.41,26.19-.02.63,0,1.02-.39,1.29-.79-13.93.01-27.69,2.28-41.4.66-3.97,1.66-7.45,2.67-11.31,4.55-17.41,13.79-33.09,26.86-45.5,17.02-16.18,39.31-26.04,62.9-26.86,17.6-.61,34.54,4.29,49.29,13.73,6.57,4.21,12.68,8.69,18.19,14.3,7.4,7.54,13.91,15.77,18.78,25.23,4.99,9.7,8.4,20.08,9.98,30.9,1.14,7.78,1.53,15.3,1.74,23.16.4,14.66.3,29.07-.32,43.87-.8-2.48-.51-5.13-.88-7.74-.48-3.41-.86-6.62-.85-10.13.05-10.72-.11-21.18-.67-31.88-.56-10.8-2.07-23.81-5.84-33.85Z"/>
      <path d="M189.76,282.12c1.44-.39,2.61-1.52,3.29-3.11l8.92-20.6c.12-.27.13-1.11.15-1.44l5.05-2.71,8.8,22.28,2.18,4.61c.25.53,1.41.97,1.93.9,1.71-.24,2.39-2.44,2.39-4.6l.02-19.04-3.3-3.1h7.5s3.1,3.87,3.1,3.87l12.87,15.12.04-13.09-.49-3.58c-.51-1.14-1.32-1.79-2.43-2.32l19.12.02c5.65,0,11.62,2.33,13.51,7.83,2.22,6.45.11,13.89-6.25,17.15-2.06,1.05-4.43,1.9-6.81,1.91l-13.86.05c.97-.72,2.94-1.12,2.94-2.49l.02-22.69c0-1.02-1.77-1.5-2.51-1.45-.88.06-1.94.87-2.08,1.91l-.42,3.16.02,18.28.11,4.43-20.25-23.98-.06,16.98c0,1.37.33,2.69.65,4.01.56.94,1.32,1.42,2.32,1.88l-18.36-.02c1.35-.4,3.13-.42,3.38-2.03.23-1.49-.59-3.1-1.26-4.51h-14.55c-.69,1.24-1.35,2.65-1.48,4-.15,1.68,1.46,1.99,2.88,2.53l-7.27.02-.12-.2-.31,1.04-1.4-.83h-19.67c2.15-1.01,3.08-2.62,3.08-4.86l-.04-20.58c-.72-.82-1.82-1.09-2.95-1.54h11.65c-1.12.46-2.66.45-3.37,1.58l-.02,24.74,4.42-.02c2.72,0,5.37-1.14,7.12-3.22l3.41-4.07-1.85,7.47.21.29ZM266.91,276.25c1.99-8.19.32-19.21-8.77-20.17l-4.36-.05v24.51c5.4,2.09,11.25,1.58,13.13-4.29ZM209.79,275.04l-6.8-16.88-7.32,16.9,14.12-.02Z"/>
      <path d="M273.83,282.3c1.01-.43,2.38-.65,2.82-1.63l-.02-23.49c0-1.3-1.99-1.3-2.77-1.84h11.11c-1.07.41-2.36.62-2.99,1.51v23.73c0,.77,1.39,1.29,1.97,1.41,2.07.43,3.42-2.21,4.42-4.5l8.32-19.21.03-1.29,5.1-2.75,10.12,25.53c.56,1.4,1.68,2.09,2.94,2.54h-12.16c1.28-.47,2.98-.49,3.19-2.04s-.6-3.16-1.3-4.51h-14.57s-1.22,2.81-1.22,2.81c-.26.61-.28,1.91.16,2.43.49.56,1.49.87,2.48,1.32l-17.61-.02ZM304.42,275.06l-6.81-16.89-7.34,16.9h14.15Z"/>
      <path d="M83.95,282.33l-.55-1.17-6.88-9.68-4.55-.03.05,9.42c.61.78,1.91,1.08,2.97,1.44h-11.1c.79-.51,2.77-.52,2.77-1.82v-23.29c0-1.26-1.87-1.31-2.79-1.84h15.47c4.48,0,9.19,1.57,9.81,6.14s-2.64,7.9-7.37,9.41l5.21,7.15c1.33,1.83,2.95,2.98,5.08,4.25l-8.12.03ZM83.69,261.04c-.56-2.71-2.7-4.79-5.49-4.85l-6.22-.13v13.91c2.82.71,5.37,1.05,8.04.72,4.14-.5,4.51-5.56,3.67-9.65Z"/>
      <path d="M54.7,282.05c-4.33,1.28-8.88,1.04-12.82-.86-4.9-2.37-7.45-7.14-7.4-12.49s2.52-9.79,7.23-12.14c4.24-2.11,9.19-2.29,13.65-.73,5.69,1.98,8.94,7.18,8.89,13.13s-3.52,11.31-9.55,13.09ZM54.68,281c6.53-4.54,4.74-20.06-3.47-24.59-3.83-2.11-8.24-.39-9.94,3.65-2.74,6.5-.59,16.23,5.08,20.49,2.42,1.82,5.73,2.25,8.32.45Z"/>
      <path d="M137.98,281.62c-4.15,1.66-8.62,1.63-12.7.16-5.53-2-8.71-7-8.76-12.81s3.05-10.92,8.57-13.01c4-1.51,8.39-1.54,12.41-.09,5.63,2.03,8.86,7.17,8.79,13.1-.06,5.58-2.96,10.5-8.33,12.65ZM137.58,280.4c6.09-6.41,2.67-21.24-5.1-24.35-3.29-1.32-6.74-.12-8.55,2.91-3.19,5.31-1.89,13.55,1.73,18.79,2.85,4.13,7.86,6.03,11.92,2.65Z"/>
      <path d="M27.02,282.31h-12.64s2.49-.63,2.49-.63c.74-.19,1.31-1.07,1.31-1.9v-23.77c-2.73-.22-5.14.5-7.1,2.15-1.41,1.5-2.24,3.21-3.29,5.14l1.24-7.98h25.29s-2.54,8.07-2.54,8.07c.03-2.75-.37-5.17-2.71-6.53-1.71-.88-3.68-1.1-5.62-.84v23.75c0,.6.47,1.35.81,1.73l2.75.81Z"/>
      <path d="M109.16,282.31h-12.59s2.66-.74,2.66-.74c.54-.15,1-1.13,1-1.79v-23.79c-2.31-.16-4.55.39-6.43,1.65-1.9,1.53-2.81,3.53-3.94,5.71l1.22-8.03h25.31s-2.52,7.93-2.52,7.93c-.13-2.31-.19-4.32-1.89-5.81-1.79-1.41-4.09-1.74-6.45-1.43l.05,24.5c.43,1.37,2.2,1.3,3.58,1.79Z"/>
      <path d="M168.99,274.35l-2.2,8.79-1.45-.82h-19.62c1.61-.91,3.01-2.14,3.01-4.08v-21.36c-.75-.82-1.82-1.09-2.97-1.55h11.67c-1.24.39-2.26.55-3.39,1.43v24.9s4.4-.02,4.4-.02c2.72-.01,5.37-1.14,7.12-3.22l3.42-4.07Z"/>
      <polygon points="200.29 239.13 188.38 239.41 169.53 239.7 154.4 239.92 129.88 239.93 108.67 238.95 126.51 238.02 145.32 237.8 180.07 238.11 201.97 238.51 211.79 238.64 207.65 239.01 200.29 239.13"/>
      <path d="M142.23,304.69c-.2.23-1.07.24-1.21,0l-.83-2.23-4.54-.04-.89,2.46h-1.93s-4.87-5.46-4.87-5.46l-.22,5.41-1.11.05v-10.28s1.1-.12,1.1-.12l.25,4.61,4.44-4.4c.29-.29,1.25-.26,1.64-.06l-4.57,4.66,4.28,4.88,3.46-9.56,1.33-.08,3.66,10.14ZM139.82,301.31l-1.89-5.4-1.96,5.5,3.85-.1Z"/>
      <path d="M245.28,304.69c-.2.22-1.07.24-1.21,0l-.83-2.23-4.54-.04-.9,2.45h-1.92s-4.87-5.46-4.87-5.46l-.22,5.41-1.11.05v-10.28s1.1-.12,1.1-.12l.25,4.61,4.44-4.4c.29-.29,1.25-.26,1.64-.06l-4.57,4.66,4.28,4.88,3.46-9.56,1.33-.08,3.66,10.14ZM242.87,301.31l-1.89-5.4-1.96,5.5,3.85-.1Z"/>
      <path d="M221.59,294.57l1.17-.05-3.16,10.14c-.3.22-1.01.28-1.28.06l-2.66-8.77-2.64,8.85h-1.25s-3.16-10.15-3.16-10.15c.18-.15.98-.15,1.19.04l2.6,8.14,2.46-8.25,1.62-.02,2.5,8.23,2.63-8.22Z"/>
      <path d="M84.47,294.55l1.15-.02-3.14,10.12c-.24.23-.95.29-1.28.09l-2.69-8.85-2.61,8.84c-.27.19-.98.15-1.29-.02l-3.18-10.19,1.23.11,2.59,8.16,2.48-8.23c.48-.03,1.22,0,1.62.06l2.48,8.25,2.65-8.32Z"/>
      <path d="M169.39,110.25c-3.16.84-6.18,1.1-9.41,1.04-4.97-.08-9.81-.4-14.68-1.3l-4.19-1.2c-1.05-.3-1.93-1.45-1.46-2.6.54,1.81,4.04,2.57,6.58,2.7l14.28.75,8.89.61Z"/>
      <path d="M168.98,304.74c-.15.42-1.24-.15-1.48-.48l-5.77-7.7-.1,8.33h-1.1s-.01-10.39-.01-10.39l1.17.15,6.19,8.19.11-8.33h1.06s-.06,10.24-.06,10.24Z"/>
      <path d="M121.57,304.74c-.15.42-1.24-.15-1.48-.48l-5.77-7.7-.1,8.33h-1.1s-.01-10.39-.01-10.39l1.17.15,6.19,8.19.11-8.33h1.06s-.06,10.24-.06,10.24Z"/>
      <path d="M106.13,294.38c3.08-.17,5.39,2.22,5.58,4.94.21,3.08-2.12,5.49-4.96,5.69s-5.42-1.99-5.69-4.78c-.3-3.03,1.87-5.67,5.08-5.84ZM105.36,295.61c-2.48.65-3.72,3.12-3.03,5.34s2.89,3.36,5.15,2.78,3.58-2.81,2.96-5.15c-.54-2.03-2.71-3.6-5.09-2.97Z"/>
      <path d="M99.45,304.9l-2.91-4.71-1.97-.03-.03,4.57c-.12.16-.9.13-1.07-.06v-10.18s3.93.02,3.93.02c1.41,0,2.52,1.31,2.66,2.52.17,1.45-.62,2.69-2.34,3.13l3,4.67-1.26.08ZM97.49,299.03c.99-.03,1.56-1.17,1.46-1.85-.13-.86-.85-1.59-1.79-1.58l-2.6.04v3.47s2.93-.09,2.93-.09Z"/>
      <polygon points="188.2 304.88 180.34 304.88 185.99 295.68 180.82 295.59 180.85 294.47 188.03 294.5 182.39 303.74 188.19 303.74 188.2 304.88"/>
      <path d="M179.48,297.62c-1.34-2.27-4.22-2.76-6.2-1.31s-2.24,4.47-.58,6.22c1.8,1.91,4.82,1.76,6.4-.26.11-.14.5-.47.61-.38l.66.51c-1.86,3-5.6,3.39-8.11,1.32-2.41-2.22-2.46-6.05.2-8.19,2.41-1.93,6.25-1.47,7.98,1.5l-.95.59Z"/>
      <path d="M157.91,302.45h-4.62s-.85,2.35-.85,2.35h-1.23s3.7-10.25,3.7-10.25l1.32.06,3.67,10.14-.76.22c-.18.05-.54-.37-.6-.54l-.64-1.97ZM157.49,301.33l-1.94-5.3-1.93,5.36,3.86-.07Z"/>
      <polygon points="194.63 300.2 190.67 300.22 190.63 303.79 195.19 303.79 195.15 304.88 189.5 304.89 189.52 294.48 195.19 294.48 195.14 295.56 190.67 295.58 190.62 299.11 194.56 299.12 194.63 300.2"/>
      <polygon points="91.2 300.2 87.26 300.21 87.27 303.78 91.84 303.81 91.83 304.88 86.14 304.89 86.14 294.47 91.76 294.48 91.84 295.57 87.27 295.56 87.26 299.12 91.19 299.12 91.2 300.2"/>
      <path d="M207.64,300.2l-3.93.02v3.56s4.57.03,4.57.03v1.07s-5.7,0-5.7,0v-10.4s5.07-.02,5.07-.02c.16,0,.65.08.64.23l-.02.86h-4.57s0,3.56,0,3.56h3.93s0,1.08,0,1.08Z"/>
      <path d="M121.11,168.07l-.92-16.56c-.2-3.65-.23-7.12.72-10.88.6,9.59.76,19.12.66,28.88-.45-.25-.41-.69-.46-1.44Z"/>
      <path d="M225.55,305.01c-1.6-.01-2.94-.62-3.5-2.12l1.01-.47c.8,1.48,2.53,1.89,3.85.98.3-.21.62-.96.6-1.31-.03-.4-.47-1.2-.84-1.37l-2.5-1.14c-1.15-.52-1.83-1.5-1.76-2.64.07-1.25.9-2.25,2.26-2.51,1.25-.24,2.64.18,3.4,1.28-.25.19-.81.5-1,.53-.84-.9-2.26-1.09-3.16-.18-.64.65-.43,1.91.45,2.31l2.29,1.04c1.38.62,2.14,1.67,1.93,3.18-.17,1.28-1.36,2.43-3.04,2.41Z"/>
      <path d="M146.72,302.52c.33.85.85,1.36,1.54,1.37.91.01,1.51-.75,1.51-1.67v-6.59s-3.58-.02-3.58-.02l-.04-1.13h4.74s-.05,8.43-.05,8.43c0,1.42-1.62,2.21-2.78,2.11-1.28-.11-2.35-1-2.39-2.34l1.05-.16Z"/>
      <path d="M201.56,141.56c-8.02,3.97-18.61,5.55-27.34,4.78,5.69-.44,11.01-.79,16.51-1.97l10.84-2.81Z"/>
      <polygon points="201.8 303.76 201.84 304.88 196.84 304.89 196.83 294.51 197.96 294.6 197.97 303.73 201.8 303.76"/>
      <path d="M151.7,201.48c2.27-3.52,3.94-6.99,4.32-11.19.04-.48.25-.99.82-1.36,1.02,4.75-.66,9.87-5.15,12.55Z"/>
      <path d="M124.69,304.15c0,.27-.08.78-.23.78l-.89-.02v-10.3s1.12-.1,1.12-.1v9.65Z"/>
      <path d="M141.87,106.2c-.65-2.04-.55-3.95-.78-5.96-.28-2.43-.16-5.43.69-7.86.3,1,.43,1.92.4,2.95l-.31,10.88Z"/>
      <path d="M177,90.6l2.23-1.15c-2.79-.76-5.4-.71-8.23-.97l-5.65-.51c3.87-.64,13.57-.27,14.17,1.58.15.47-1.05,1.09-2.52,1.05Z"/>
      <path d="M189.69,114.02c-.02,4.58.01,8.84-1.02,13.32-.18-4.84.21-9.56.46-14.54l.56,1.22Z"/>
      <path d="M148.55,136.99c1.27-1.57,2.46-2.7,1.91-4.73-1.49.57-1.87,1.93-2.22,3.32-.22-1.06-.08-2.1.41-2.99.38-.7,1.54-1.43,2.59-1.19.99,2.14-.19,5.13-2.68,5.6Z"/>
      <path d="M169.08,197l1.88,3.26c-3.21-2.75-4.55-6.85-4.15-10.74.64,2.72.94,5.17,2.27,7.48Z"/>
      <path d="M123.12,159.08l-.04.65c0,.09-.39-.33-.4-.42l-.26-3.65.28-6.54c.29.29.49.83.48,1.31l-.07,8.66Z"/>
      <path d="M179.79,209.78c-2.73,1.21-5.82,1.81-9.03,1.64l9.03-1.64Z"/>
      <path d="M149.32,202.86c-1.22,1.74-2.94,2.37-4.81,2.68,1.48-1.25,3.02-2.4,4.81-2.68Z"/>
      <path d="M196.39,163.04l-3.34-1.63c-.45-.22-1.41-.25-2.04-.39,2.02-.66,4.29-.09,5.38,2.02Z"/>
      <path d="M143.22,102.39c-.61-2.02-.89-4.05-.19-6.28.36,2.19.45,4.08.19,6.28Z"/>
      <path d="M187.34,126.21c-.38-2.31-.07-4.31.35-6.43.26,2.17.22,4.34-.35,6.43Z"/>
      <path class="cls-1" d="M111.42,179.55c9.38,2.75,18.93,4.55,28.84,5.27,10.4.76,20.64.89,30.92.02l-6.05-.16-12.38-.34c-8.43-.23-16.6-.97-24.89-2.55l-11.14-2.48c-2.9-.64-7.85-2.48-8.49-4.34-.35-1.01,1.85-2.59,3.64-3.36l5.46-2.35.23,2.99c1.51,2.13,3.73,3.5,6.26,4.32,6.09,1.96,12.28,2.87,18.69,3.38,6.94.55,13.6.82,20.54.43l3.31,2.07c3.46,2.16,7.34,2.47,11.2,1.22l2.85-.52-2.84,3.34-24.76-.2c-7.85-.06-15.37-.48-23.13-1.19l-6.35-1.35-8.29-2.52-3.67-1.5-.21-.17-.37-.16-.45-.26.32.02.26.12.38.14.13.11Z"/>
      <path class="cls-1" d="M153.1,143.36l.59-1.94c-.63-1.31-1.43-2.04-2.65-2.91l9.22.91c7.99.28,15.83.07,23.68-1.31,2.38-.42,4.57-.97,6.54-2.2,1.38-.87,1.84-2.1,1.9-3.76l.05-1.57,7.68,2.64c1.54.53,2.84,1.05,4.12,2.32-3.15,2.91-9.23,4.14-13.6,4.89-5.03.86-9.83,1.6-14.95,2.01-7.49.61-14.8.85-22.57.92Z"/>
      <path class="cls-1" d="M140.74,136.04c-1.08.09-.56-1.79-.93-1.88l-.92-.23.55-1.18-2.39-.83-.43.94-.4-1.3c-.07-.22-.64,0-1.03.1-.18-1.34-.02-2.86.68-3.97.56-.89,1.62-1.16,2.48-.68,1.84,1.03,4.25-.91,4.59.42.37,1.44.93,2.01,2.03,2.79,1.03.74.8,2.52.08,3.5-.99,1.36-2.38,2.15-4.32,2.32Z"/>
      <path class="cls-1" d="M192.52,173.05l.64,1.07-.98-.22c-.04.2-.13.94.05,1.06l1.1.75-1.67.57c-1.21-.41-2.04-1.15-2.82-2.18-1.16-1.54-1.38-4.27.38-5.45.99-.66,1.9-1.1,2.62-2.08.47-.64,1.51-.67,2.2-.16,1.76,1.3,2.77,3.65,2.34,5.75l-.79,1.25-.19-1.09-.73.44c-.14.08-.57-.61-.64-.46l-.33.68c-.08.17-.34.1-1.17.08Z"/>
      <path class="cls-1" d="M177.61,104c-.17.11-.69.42-.72.64l-.13.93c-.1.75-3.77-.01-4.64-2.5-.4-1.15.04-2.09,1.03-2.58,1.17-.58.77-2.72,2.44-2.22,1.05.31,2.09.17,3.12-.22,1.24-.48,2.82,1.72,2.3,4.32l-.58-.47c-.08-.07-.27.28-.33.37l-.37.55c-.07.1-.38-.47-.5-.43l-1.88.66.26.96Z"/>
      <path class="cls-1" d="M194.07,183.11c-.45.93-1.21,1.05-2.05.79l-3.3-1c1.23-.54,2.16-1,3.28-1.87-1.95.08-3.72,1.85-4.59-.32-1.31-3.27-3.61-3.87-2.18-4.97,1.31-1.01,2.92-.75,4.13.22,1.14.91,2.34,1.03,4.02,1.18-.73.44-1.42.75-2.35,1.07-.44.15-1.14,1.07-.74,1.45,1.3,1.23,2.99,1.5,4.74,1.51l-.95,1.96Z"/>
      <path class="cls-1" d="M133.76,140.22c1.5.7,2.82.37,4.32.5,1.88.16,3.96.39,5.32-1.17.25-.29.47-1.2.38-1.56-.34-1.42-3.53.12-5.09-1.22,2.78-.18,5.12-.41,6.9-2.54,1.56,1.01,1.87,3.1.9,4.5-1.33.27-2.07,1.13-1.9,2.48-1.91,2.71-4.57.25-8.02,1.6-.73.29-1.73.21-2.24-.3-.59-.58-.76-1.63-.57-2.28Z"/>
      <path class="cls-1" d="M208.19,169.21l1.33-.99c-1.46.29-2.46.63-3.89.39l-1.26-5.07-.15,3.28c-.75-1.76-.94-3.38-.5-5.43,1.57.42,3.89,1.98,4.87,3.05,1.76,1.92,3.36,1.3,4.01,2.15.49.64-1.97,2.6-4.42,2.62Z"/>
      <path class="cls-1" d="M201.36,181.87l-3.29,1.03c-1.03.32-2.01-.79-2.09-1.8,3.64-1.17,4.79-4.64,5.73-4.94l2.98-.96c1.88,1.41-1.6,2.95-3.26,5.89l1.43-.4c-.23.49-.85.97-1.5,1.18Z"/>
      <path class="cls-1" d="M174.23,108.91c1.35,1.37,5.53.97,8.23.42.11.55-.13,1.46-.66,1.99-1.11,1.11-2.45-.6-5.09-.05-1.25.26-2.59.05-3.46-.92l-.56-1.63-1.49-.94c-.42-1.13-.16-2.69.82-3.45,2.14,2.29,4.08,1.41,5.23,2.46l-2.96.2c-.26.02-.7.62-.63.84.08.27.35.87.56,1.08Z"/>
      <path class="cls-1" d="M201.76,174.88c-.07-4.84-.96-.4-4.01.36.97-.86.1-1.42.05-2.08-.18-2.11,1.39-4.36,3.16-5.54l2.14,2.61c.68,1.65-.2,3.63-1.34,4.65Z"/>
      <path class="cls-1" d="M133.84,133.72l-2.08-4.05c-.17-.33-.72-.88-1.08-.9-.43-.02-1.17.3-1.6.53.09-3.72,2.64-2.26,4.88-3.8.96-.66,2.18-.69,2.99.24-2.72,1.11-2.83,3.56-2.49,6.23l-.9-1.45.29,3.21Z"/>
      <path class="cls-1" d="M130.26,131.3c-1.64-.04.49,5.51,2.45,8.02-1.31.38-3.12.17-3.76-1.13-2.17-4.38.9-9.74,1.94-8.4.98,1.26,1.79,2.57,2.31,4.27l-1.95-2.26c-.19-.22-.74-.49-.99-.49Z"/>
      <path class="cls-1" d="M140.96,139.89l-3.64.13c-2.4.09-4.42-1.14-5.3-3.37l-1.3-3.52c1.13,1.17,1.98,1.89,3.18,2.72,2.29,1.6,4.44,3.03,7.06,4.04Z"/>
      <path class="cls-1" d="M214,174.84c1.8-.98,3.39-1.92,5.28-2.45-1.17-.13-2.33.12-3.36.5l-2.9,1.07c2.76-2.46,6.46-3.3,9.71-2.54l-5.91,3.94c-1.13.75-2.98.5-4.32.3l1.5-.82Z"/>
      <path class="cls-1" d="M183.8,100.61l-1.52,3.12.11-2.42-.76,1.27c.2-2.45.34-4.18-2.29-5.43.82-.73,1.67-.69,2.49-.22,2.16,1.23,4.26.33,4.36,3.26l-1.3-.46c-.31-.11-.93.55-1.09.87Z"/>
      <path class="cls-1" d="M183.2,108.46c3.3-4.13,2.79-8.06,1.07-6.18l-1.71,1.87,1.69-3.39c.95-1.9,4.11,3.05,2.2,6.87-.55,1.1-2.23,1.16-3.25.83Z"/>
      <path class="cls-1" d="M172.75,182.95l2.56.67c-2.92.17-5.86-.39-8.41-1.88l.84-.19-2.04-.96c3.86-1.07,7.49,2.02,11.58,2.24l-4.53.13Z"/>
      <path class="cls-1" d="M180,187.23c-1.08,2.56-2.99,4.58-5.08,6.2.24-1.39.73-2.29,1.31-3.27,1.41-2.4,2.67-4.76,5.2-6.33l-1.43,3.4Z"/>
      <path class="cls-1" d="M179.22,109.15l-3.07.02c2.16-.94,3.92-1.84,5.53-3.25l3.14-2.73-1.16,3.41c-.63,1.85-2.55,2.52-4.45,2.54Z"/>
      <path class="cls-1" d="M123.11,126.88l-.37-4.61-.23,4.59c-1.13-3.18-.71-6.59.55-9.7,1.38,3.7,1.76,6.14.06,9.72Z"/>
      <path class="cls-1" d="M118.42,130.55c2.49.2,4.63,1.21,6.6,2.74-3.5.72-6.85-.33-9.36-2.96l2.75.22Z"/>
      <path class="cls-1" d="M207.52,187.06c-.28-1.05-.87-2.42-.91-3.59l-.19-5.09,1.65,3.8-.88-3.96c2.04,2.41,2.42,5.53,1.64,8.45l-.47-2.28-.85,2.68Z"/>
      <path class="cls-1" d="M201.53,166.95c-3.17.77-3.48,3.23-4.64,5.96-.06-.84.05-1.45.23-2.29.43-2.05-1.75-3.94-.86-4.83.25-.24,1.03-.37,1.35-.21l1.38.69,2.54.68Z"/>
      <path class="cls-1" d="M127.65,133.18c-.73-2.05-.92-4.02-1.07-6.24-.3,1.37-.19,2.58-.17,4.04-1.05-2.65-.6-5.61.48-8.08,1.68,3.11,1.11,6.03.62,9l.77-1.39-.63,2.67Z"/>
      <path class="cls-1" d="M117.21,126.13c1.11.34,2.25.98,3.18,1.79-1.54.11-3.18.28-4.35-.5l-3.99-2.66c2.04-.33,4.21-.03,6,1.07l-.66.11-.18.19ZM117.25,125.79h-1.17s.96.29.96.29l.2-.29Z"/>
      <path class="cls-1" d="M154.33,136.36l-2.41.44c1.83-2.46,3.71-2.58,6.65-2.71-1.87,2.54-4.48,3.82-7.42,3.88l3.17-1.61Z"/>
      <path class="cls-1" d="M211.82,169.25c.62-.68,1.49-1.41,1.61-2.33s-.81-1.4-1.75-1.67c.16-.34,1.32-1.21,1.85-1.07,1.04.27,2.13,1,3,1.7-.98,1.81-2.57,2.98-4.71,3.38Z"/>
      <path class="cls-1" d="M181.92,177.56l-2.11-1.81.71,1.64c-2.17-1.71-3.62-4.06-4.07-6.9,1.79,1.18,3.07,2.69,4.15,4.44l1.32,2.62Z"/>
      <path class="cls-1" d="M129.74,140.23l-2.52,2.97-1.77,1.95c-.82-2.2.24-4.33,2.11-5.48l.58-.36c.17-.1.72.3.63.48l-.37.77,1.34-.32Z"/>
      <path class="cls-1" d="M150.26,148.41c-2.28-1.6-3.65-4.04-4.29-6.55.44-.05.53,0,.52-.09l-.06-.77c2.18,1.72,3.59,4.24,3.82,7.41ZM146.87,142.36l.38.6c.06.1.04-.4.01-.51-.02-.07-.43-.16-.39-.09Z"/>
      <path class="cls-1" d="M114.81,103.49l-.48,2.22c-.58-2.58-.15-5.09.91-7.72,1.05,3.07.88,6.2.02,9.25l-.45-3.75Z"/>
      <path class="cls-1" d="M113.16,118.51l2.53,2.89c-2.55-1.13-4.02-3.44-5.04-6.01,2.84,1.1,4.86,3.05,6.1,5.78l-3.59-2.66Z"/>
      <path class="cls-1" d="M207.84,172.58c-.72.46-1.02,1.1-1.32,2.15l-2.04-.37c1.12-1.39,1.51-2.56,1.52-4.15l4.06.95-2.22,1.42Z"/>
      <path class="cls-1" d="M127.46,137.56c-2.11.7-4.09.43-6.23-.67,1.86-.93,3.82-1.44,6.01-1.19l.22,1.86Z"/>
      <path class="cls-1" d="M150.26,142.18c-1.03-.69-1.77-1.63-2.21-2.73,2.08-.75,4.23.47,4.68,2.48-.41.7-1.78.71-2.47.25Z"/>
      <path class="cls-1" d="M199.01,183.93c.58-.54,1.46-.88,2.38-1.07,1.28-.27,1.83-1.18,2.46-2.19l1.73-2.79.24,4.16-6.8,1.89Z"/>
      <path class="cls-1" d="M119.46,115.08l-.95,2.51c.14-2.33,1.12-4.2,1.92-6.12.87,3.08.29,5.86-1.41,8.64l.44-5.03Z"/>
      <path class="cls-1" d="M211.32,177.65c2.21,1.3,3.9,3.24,4.63,5.87l-2.52-2.26c-1.33-1.2-2.51-2.26-3.62-3.73l2.11,1.28-.61-1.14Z"/>
      <path class="cls-1" d="M207.19,174.68c-.16-.79.45-1.43,1.23-1.58l-.94,1.28c2.07-.47,3.37-1.6,4.42-3.1l1.58,1.01-2.8,2.12c-.65.49-2.34.34-3.48.26Z"/>
      <path class="cls-1" d="M112.66,112.36c-1.3-1.57-1.83-3.66-2.05-5.71,1.34,1.14,2.17,2.36,2.82,3.85l1,2.28.21.32-.18.43-.26-.38-2.06-3.17.68,2.14.26.2-.19.47-.24-.43Z"/>
      <path class="cls-1" d="M188.06,174.65c-1.45.17-3.18-.88-2.96-2.48.14-.95,1.16-1.86,1.96-2.49-.39,1.89-.2,3.38,1,4.97Z"/>
      <path class="cls-1" d="M202.84,165.65c-.52-1.04-.93-2.24-1.23-3.52l-.96-3.07c1.08.21,2.02,1.06,2.38,1.95l-.19,4.65Z"/>
      <path class="cls-1" d="M192.12,179.44l2.92-.42c1.23.06,2.44-.43,3.21-1.37l1.95-2.04c-1.02,3.35-5.01,5.78-8.08,3.83Z"/>
      <path class="cls-1" d="M187.19,95.52l-.24,2.67c-.77-2.17-1.37-4.35-.57-6.88.87,2.22,1.67,4.53,1.37,6.88l-.56-2.66Z"/>
      <path class="cls-1" d="M171.16,112.65c-.16,1.25-1.43,2.41-2.62,3.13.38-2.14,1.02-4.04,2.8-5.2-.19.91-.36,1.36-.18,2.07Z"/>
      <path class="cls-1" d="M193.11,185.27c.92-.63,1.61-1.28,1.88-2.34l.44-1.71c.73,1.61,1.18,2.33,2.57,2.99l-4.9,1.06Z"/>
      <path class="cls-1" d="M218.8,168.94c-.63.06-1.8-.64-1.43-1.19.75-1.12,2.47-1.03,3.63-.82.06,1.34-.75,1.88-2.2,2.02Z"/>
      <path class="cls-1" d="M210.95,180.26l-1.53.59c-.37-2.3-1.71-3.85-3.84-5.23,1.78-.46,2.73,1.27,3.6,2.38l1.77,2.26Z"/>
      <path class="cls-1" d="M190.78,96.4c-1.41-.54-1.06-3.39.16-3.92,1.06.54,1.17,3.45-.16,3.92Z"/>
      <path class="cls-1" d="M190.44,97.64c-.29,1.34-1.11,2.71-2.08,3.72l.27-5.6c.41.66.89,1.15,1.81,1.88Z"/>
      <path class="cls-1" d="M192.91,103.01c.05.61-.77,1.25-1.22,1.38-.57.16-2.01.01-2.14-.57.04-1.41,2.52-2.03,3.36-.81Z"/>
      <path class="cls-1" d="M215.71,176.59l-1.64,1.96c-1.4-1.36-2.76-2.03-4.73-2.74.59-.42,1.59-.35,2.09.57l4.28.21Z"/>
      <path class="cls-1" d="M195.43,90.84l-1.22,1.78c.48-2.37,1.27-4.32,2.92-5.84l-.96,3.93-.74.14Z"/>
      <path class="cls-1" d="M143.17,138.18c-.59,1.07-2.05,1.22-2.83.77l-2.41-1.38,1.51.15c1.22.03,2.34.07,3.74.46Z"/>
      <path class="cls-1" d="M198.51,163.84c-1.04-1.97-2.28-3.99-1.63-6.64l1.27,2.89.18.13-.14.46-.2-.46-.61-.24,1.3,3.72.08.15.14.38.12.26c-.01-.27-.01-.27.02.32l-.26-.45-.14-.38-.12-.14Z"/>
      <path class="cls-1" d="M167.31,105.75l-.28.72c-.6-.91-1.07-1.74-1.45-3,1.59,1.15,2.64,2.18,3.7,3.78-.75-.41-1.17-.79-1.97-1.49Z"/>
      <path class="cls-1" d="M194.49,177.9l1.19-.55c.62-.75,1.31-1.3,2.63-1.38-.74,1.12-1.84,2.4-3.82,1.93Z"/>
      <path class="cls-1" d="M174.36,107.81c.71-.69,1.97-.58,2.99-.29l1.29-.42-1.34.92c-.79.54-1.92.76-2.94-.22Z"/>
      <path class="cls-1" d="M127.62,138.21c.9-.24-.91,2.2-3.59.69l2.99-.53.6-.16Z"/>
      <path class="cls-1" d="M191.62,106.91l-4.04-.4c1.38-.74,2.63-.46,4.04.4Z"/>
      <polygon class="cls-1" points="147.54 140.99 145.81 139.79 147.84 139.18 147.54 140.99"/>
      <path class="cls-1" d="M189.43,105.27l-1.28.36c-.19.05-.35-.46-.38-.66-.04-.25.57-.76.74-.59l.92.9Z"/>
      <path class="cls-1" d="M204.51,169.28c.06.05-.15.75-.22.71l-.47-.24-1.09-1.85,1.79,1.38Z"/>
      <path class="cls-1" d="M204.09,173.18l.3-2.66c.64.85.6,1.99-.3,2.66Z"/>
      <path class="cls-1" d="M190.4,166.61c-.44.39-1.08.7-1.86.95.21-.86.81-1.2,1.86-.95Z"/>
      <path class="cls-1" d="M187.17,102.32l-.72-1.78c.62.36.98.99.72,1.78Z"/>
      <polygon class="cls-1" points="192.73 178.41 191.05 179.09 190.9 178.91 192.29 178.25 192.73 178.41"/>
      <path class="cls-1" d="M203.63,173.92c.04-.06.21.31.15.37l-.25.25c-.06.06-.33.06-.29-.01l.39-.61Z"/>
      <path class="cls-1" d="M128.43,129.86q0,.6,0,0,0-.31,0,0Z"/>
      <polygon class="cls-1" points="202.11 167.98 202.11 168.14 202.11 168.32 202.11 168.49 202.1 168.32 202.1 168.14 202.11 167.98"/>
      <polygon class="cls-1" points="195.67 91.2 195.67 91.37 195.67 91.54 195.67 91.71 195.66 91.54 195.66 91.37 195.67 91.2"/>
      <polygon class="cls-1" points="195.71 97.25 195.88 97.25 196.05 97.25 195.88 97.26 195.71 97.26 195.54 97.25 195.71 97.25"/>
      <path class="cls-1" d="M266.91,276.25c-1.88,5.87-7.72,6.38-13.13,4.29v-24.51s4.36.05,4.36.05c9.08.96,10.76,11.98,8.77,20.17Z"/>
      <polygon class="cls-1" points="209.79 275.04 195.66 275.06 202.99 258.16 209.79 275.04"/>
      <polygon class="cls-1" points="304.42 275.06 290.27 275.07 297.61 258.17 304.42 275.06"/>
      <path class="cls-1" d="M83.69,261.04c.84,4.1.47,9.15-3.67,9.65-2.66.32-5.21-.01-8.03-.72v-13.91s6.21.13,6.21.13c2.78.06,4.93,2.14,5.49,4.85Z"/>
      <path class="cls-1" d="M54.68,281c-2.59,1.8-5.9,1.36-8.32-.45-5.67-4.26-7.82-13.98-5.08-20.49,1.7-4.04,6.11-5.75,9.94-3.65,8.2,4.52,10,20.05,3.47,24.59Z"/>
      <path class="cls-1" d="M137.58,280.4c-4.06,3.38-9.06,1.48-11.92-2.65-3.62-5.24-4.92-13.48-1.73-18.79,1.82-3.03,5.27-4.22,8.55-2.91,7.76,3.11,11.19,17.94,5.1,24.35Z"/>
      <polygon class="cls-1" points="139.82 301.31 135.97 301.41 137.93 295.9 139.82 301.31"/>
      <polygon class="cls-1" points="242.87 301.31 239.02 301.41 240.99 295.9 242.87 301.31"/>
      <path class="cls-1" d="M105.36,295.61c2.38-.63,4.55.94,5.09,2.97.62,2.34-.8,4.6-2.96,5.15s-4.49-.66-5.15-2.78.55-4.69,3.03-5.34Z"/>
      <path class="cls-1" d="M97.49,299.03l-2.93.09v-3.47s2.6-.04,2.6-.04c.94-.01,1.66.72,1.79,1.58.1.68-.47,1.82-1.46,1.85Z"/>
      <polygon class="cls-1" points="157.49 301.33 153.62 301.39 155.55 296.03 157.49 301.33"/>
      <path d="M146.87,142.36c-.04-.07.37.02.39.09.03.11.05.61-.01.51l-.38-.6Z"/>
    </g>
  </g>
</svg>